<svg id="account" xmlns="http://www.w3.org/2000/svg" width="16.932" height="17" viewBox="0 0 16.932 17">
  <path id="account-2" data-name="account" d="M9.51,2.545A3.091,3.091,0,1,0,12.6,5.636,3.091,3.091,0,0,0,9.51,2.545Zm2.916,6.7a4.636,4.636,0,1,0-5.833,0,8.508,8.508,0,0,0-5.542,7.139A1.489,1.489,0,0,0,2.556,18H16.465a1.489,1.489,0,0,0,1.5-1.621A8.508,8.508,0,0,0,12.426,9.241ZM9.51,10.273A6.956,6.956,0,0,0,2.6,16.455H16.422A6.956,6.956,0,0,0,9.51,10.273Z" transform="translate(-1.044 -1)" fill="#acacac" fill-rule="evenodd"/>
</svg>
