<svg id="Lock" xmlns="http://www.w3.org/2000/svg" width="16" height="20" viewBox="0 0 16 20">
  <path id="Path_1043" data-name="Path 1043" d="M7,8h7V6a2,2,0,0,0-4,0A1,1,0,0,1,8,6a4,4,0,0,1,8,0V8h1a3,3,0,0,1,3,3v8a3,3,0,0,1-3,3H7a3,3,0,0,1-3-3V11A3,3,0,0,1,7,8ZM6,19a1,1,0,0,0,1,1H17a1,1,0,0,0,1-1V11a1,1,0,0,0-1-1H7a1,1,0,0,0-1,1Z" transform="translate(-4 -2)" fill="#acacac"/>
  <path id="Path_1044" data-name="Path 1044" d="M12,12a3,3,0,1,1-3,3A3,3,0,0,1,12,12Zm0,4a1,1,0,1,0-1-1A1,1,0,0,0,12,16Z" transform="translate(-4 -2)" fill="#acacac"/>
</svg>
