<svg xmlns="http://www.w3.org/2000/svg" width="19.08" height="18.721" viewBox="0 0 19.08 18.721">
  <path id="home_icon" d="M18.846,8.982,10.11.246A.806.806,0,0,0,9.527,0h0a.812.812,0,0,0-.573.236L.261,8.949a.844.844,0,0,0-.087,1.116.809.809,0,0,0,1.2.058l.87-.87v6.073a3.394,3.394,0,0,0,3.394,3.394h7.8a3.394,3.394,0,0,0,3.391-3.394V9.257l.874.87a.81.81,0,1,0,1.145-1.145ZM11.479,15.32H7.6a.647.647,0,0,1-.647-.647v-1.8A2.647,2.647,0,0,1,9.366,10.2a2.588,2.588,0,0,1,2.76,2.588V14.68A.647.647,0,0,1,11.479,15.32Z" transform="translate(-0.003 0)" fill="#322a7d"/>
</svg>
