<svg xmlns="http://www.w3.org/2000/svg" width="14.94" height="16.301" viewBox="0 0 14.94 16.301">
  <path id="Icon_ionic-ios-moon" data-name="Icon ionic-ios-moon" d="M19.266,16.815c-.123,0-.246.008-.369.008a7.483,7.483,0,0,1-5.382-2.266,7.732,7.732,0,0,1-2.228-5.467,7.83,7.83,0,0,1,.743-3.34,11.063,11.063,0,0,1,.577-.993.167.167,0,0,0-.166-.259,8.209,8.209,0,0,0,1.252,16.3,8,8,0,0,0,6.15-2.89,7.752,7.752,0,0,0,.7-.925.171.171,0,0,0-.174-.259A7.248,7.248,0,0,1,19.266,16.815Z" transform="translate(-5.625 -4.496)" fill="#354052"/>
</svg>
