<svg xmlns="http://www.w3.org/2000/svg" width="12.133" height="15.558" viewBox="0 0 12.133 15.558">
  <g id="users" transform="translate(0.35 0.35)">
    <path id="users-2" data-name="users" d="M10.273,14.278a4.125,4.125,0,0,0-4.121-4.121H5.281A4.126,4.126,0,0,0,1.16,14.278a.58.58,0,0,1-1.16,0A5.288,5.288,0,0,1,5.281,9h.871a5.287,5.287,0,0,1,5.281,5.282.58.58,0,0,1-1.16,0ZM1.741,3.918A3.918,3.918,0,1,1,5.659,7.835,3.922,3.922,0,0,1,1.741,3.918Zm1.16,0A2.757,2.757,0,1,0,5.659,1.16,2.762,2.762,0,0,0,2.9,3.918Z" fill="#bbc5d5" stroke="white" stroke-width="0.7"/>
  </g>
</svg>
